<svg viewBox="0 0 221 65" fill="none" xmlns="http://www.w3.org/2000/svg" class="h-8 mr-4 md:h-9 lg:mr-0"><path d="M76.333 20.5005h6.4855l13.7446 21.9759V20.5005h5.9869v31.1388h-6.4413L82.3198 29.7091v21.9302H76.333V20.5005ZM129.311 51.6393h-5.579v-3.4782c-1.27 2.4478-3.855 3.826-7.12 3.826-5.171 0-8.529-3.6478-8.529-8.8977V29.2178h5.579v12.7238c0 3.0695 1.906 5.2043 4.763 5.2043 3.13 0 5.307-2.4022 5.307-5.6935V29.2178h5.579v22.4215ZM148.724 51.2848l-5.352-7.4738-5.353 7.4738h-5.943l8.257-11.6999-7.621-10.7216h6.078l4.582 6.4521 4.534-6.4521h6.125l-7.667 10.7216 8.256 11.6999h-5.896ZM165.96 22.4565v6.7608h6.351v4.5826h-6.351v11.1303c0 .3738.151.7324.421.9969.269.2645.634.4134 1.016.414h4.914v5.2891h-3.675c-4.99 0-8.255-2.8478-8.255-7.826v-9.9999h-4.49v-4.587h2.817c1.314 0 2.079-.7673 2.079-2.0369v-4.7239h5.173ZM186.374 44.5872V20.5005h5.985v22.2411c0 6.0064-2.948 8.8977-7.937 8.8977h-6.967v-5.2891h7.122c.476 0 .934-.1857 1.271-.5163.337-.3307.526-.7791.526-1.2467M195.945 41.1847h5.763c.319 3.4782 2.678 5.6934 6.488 5.6934 3.402 0 5.763-1.3326 5.763-4.0912 0-6.6739-17.067-2.0479-17.067-13.9695.004-5.1151 4.495-8.6695 10.947-8.6695 6.714 0 11.249 3.7804 11.526 9.6086h-5.732c-.27-2.713-2.438-4.5369-5.805-4.5369-3.13 0-5.08 1.4239-5.08 3.6022 0 6.8956 17.289 1.7391 17.289 13.8803 0 5.7825-4.855 9.2977-11.839 9.2977-7.212 0-11.929-4.2717-12.246-10.8108" fill="currentColor"/><path fill-rule="evenodd" clip-rule="evenodd" d="M29.7513 14.261c-1.6746-2.8793-5.861-2.8793-7.5356 0L3.9654 45.641c-1.6746 2.8794.4186 6.4785 3.7678 6.4785h14.2472c-1.4311-1.2507-1.9611-3.4144-.8781-5.2708l13.822-23.6931-5.173-8.8946Z" fill="#80EEC0"/><path d="M41.3151 21.1443c1.3859-2.3558 4.8505-2.3558 6.2364 0l15.1037 25.6745c1.3859 2.3558-.3464 5.3006-3.1182 5.3006H29.3296c-2.7717 0-4.5041-2.9448-3.1182-5.3006l15.1037-25.6745Z" fill="#00DC82"/></svg>