<svg width="275" height="46" viewBox="0 0 275 46" fill="none" xmlns="http://www.w3.org/2000/svg">
<path d="M36.86 16.2399C36.86 24.6099 31.36 31.0499 21.24 31.0499H13.12V40.6699C13.12 43.0999 11.81 44.4199 9.37 44.4199H3.75C1.31 44.4199 0 43.0999 0 40.6699V4.43994C0 1.99994 1.31 0.689941 3.75 0.689941H21.24C31.42 0.689941 36.86 7.86994 36.86 16.2399ZM23.74 16.3699C23.74 14.0599 22.11 11.9299 19.87 11.9299H13.12V20.6199H19.87C20.9389 20.548 21.9386 20.0655 22.6599 19.2734C23.3812 18.4812 23.7682 17.4409 23.74 16.3699Z" fill="#231F20"/>
<path d="M41.79 40.6699V4.43994C41.79 1.99994 43.11 0.689941 45.54 0.689941H51.17C53.6 0.689941 54.91 1.99994 54.91 4.43994V18.1199H67.72V4.43994C67.72 1.99994 69 0.689941 71.47 0.689941H77.09C79.53 0.689941 80.84 1.99994 80.84 4.43994V40.6699C80.84 43.0999 79.53 44.4199 77.09 44.4199H71.47C69.03 44.4199 67.72 43.0999 67.72 40.6699V28.7999H54.91V40.6699C54.91 43.0999 53.6 44.4199 51.17 44.4199H45.54C43.11 44.4199 41.79 43.0999 41.79 40.6699Z" fill="#231F20"/>
<path d="M125.32 16.2399C125.32 24.6099 119.82 31.0499 109.7 31.0499H101.58V40.6699C101.58 43.0999 100.27 44.4199 97.83 44.4199H92.21C89.78 44.4199 88.46 43.0999 88.46 40.6699V4.43994C88.46 1.99994 89.78 0.689941 92.21 0.689941H109.7C119.89 0.689941 125.32 7.86994 125.32 16.2399ZM112.2 16.3699C112.2 14.0599 110.58 11.9299 108.33 11.9299H101.58V20.6199H108.33C109.4 20.5504 110.401 20.0687 111.123 19.276C111.845 18.4833 112.231 17.4415 112.2 16.3699Z" fill="#231F20"/>
<path d="M128.51 35.11C127.64 32.73 128.89 31.11 131.26 30.55L134.82 29.74C137.01 29.24 138.13 30.17 139.44 32.17C140.75 34.17 142.88 35.11 145.88 35.11C148.88 35.11 151 34.11 151 32C151 30.94 150.44 29.57 147.31 28.57L142.38 26.69C140.26 26.01 129.63 23.2 129.51 13.89C129.51 5.43 136.63 0 146.19 0C152.94 0 157.68 2.69 160.5 7.68C161.81 9.93 160.75 11.81 158.31 12.49L154.94 13.43C152.81 14.06 151.62 13.18 150.06 11.43C149.597 10.9432 149.033 10.5631 148.408 10.3161C147.782 10.0692 147.111 9.96131 146.44 10C144.32 10 142.32 10.87 142.32 12.74C142.32 13.99 143.19 15.12 145.88 16.05L150.75 17.74C160.5 21.12 163.56 25.36 163.75 31.55C163.75 40.86 155.38 45.1 145.89 45.1C137.26 45.1 131 41.54 128.51 35.11Z" fill="#231F20"/>
<path d="M170.56 33.0499V20.8699H167.93C167.678 20.8948 167.424 20.8635 167.186 20.7784C166.948 20.6932 166.731 20.5562 166.553 20.3774C166.374 20.1985 166.237 19.9821 166.152 19.744C166.066 19.5058 166.035 19.2516 166.06 18.9999V13.4299C166.035 13.1782 166.066 12.924 166.152 12.6858C166.237 12.4476 166.374 12.2313 166.553 12.0524C166.731 11.8736 166.948 11.7366 167.186 11.6514C167.424 11.5663 167.678 11.535 167.93 11.5599H171.93L173 5.74989C173.068 5.08765 173.396 4.47932 173.911 4.05775C174.426 3.63617 175.087 3.43562 175.75 3.49989H180.63C180.967 3.461 181.308 3.49908 181.628 3.61128C181.948 3.72347 182.238 3.90684 182.477 4.14756C182.716 4.38828 182.897 4.68008 183.007 5.00094C183.116 5.32181 183.152 5.66337 183.11 5.99989V11.5599H189.05C189.302 11.535 189.556 11.5663 189.794 11.6514C190.032 11.7366 190.249 11.8736 190.427 12.0524C190.606 12.2313 190.743 12.4476 190.828 12.6858C190.914 12.924 190.945 13.1782 190.92 13.4299V18.9999C190.946 19.2524 190.916 19.5077 190.832 19.7471C190.747 19.9866 190.611 20.2042 190.432 20.3842C190.253 20.5642 190.036 20.7021 189.797 20.7879C189.558 20.8736 189.303 20.905 189.05 20.8799H183.11V33.1799C183.11 34.6199 183.8 35.1799 184.68 35.1799C185.99 35.1799 186.42 33.8699 186.42 32.6799C186.432 32.3454 186.412 32.0106 186.36 31.6799C186.24 30.3699 186.67 29.6799 187.92 29.6799H192.55C193.008 29.6304 193.47 29.7407 193.856 29.9922C194.242 30.2436 194.53 30.6208 194.67 31.0599C194.963 31.8837 195.131 32.7465 195.17 33.6199C195.17 42.7999 188.67 45.1099 183.05 45.1099C177.18 45.0999 170.56 42.6699 170.56 33.0499Z" fill="#231F20"/>
<path d="M197 27.9999C197 18.0599 203.69 10.8799 212.43 10.8799C216.68 10.8799 220.06 12.6899 221.81 15.6899V15.3199C221.81 12.8799 223.12 11.5699 225.55 11.5699H230.92C233.36 11.5699 234.67 12.8799 234.67 15.3199V40.6699C234.67 43.0999 233.36 44.4199 230.92 44.4199H225.55C223.12 44.4199 221.81 43.0999 221.81 40.6699V40.3599C220.06 43.2899 216.68 45.0999 212.43 45.0999C203.67 45.0999 197 37.9199 197 27.9999ZM222 27.9999C222 23.8699 219.69 20.6899 215.94 20.6899C212.19 20.6899 209.88 23.8699 209.88 27.9999C209.88 32.1299 212.19 35.3099 215.94 35.3099C219.69 35.3099 222 32.1099 222 27.9999Z" fill="#231F20"/>
<path d="M240.78 40.6701V15.3101C240.78 12.8701 242.09 11.5601 244.53 11.5601H249.9C252.34 11.5601 253.65 12.8701 253.65 15.3101V15.6201C255.46 12.6801 258.33 10.8701 262.77 10.8701C272.95 10.8701 274.2 19.8001 274.2 25.1801V40.6701C274.2 43.1001 272.89 44.4201 270.45 44.4201H265.08C262.64 44.4201 261.33 43.1001 261.33 40.6701V26.4201C261.33 23.8601 260.77 20.8701 257.46 20.8701C254.15 20.8701 253.65 23.8701 253.65 26.4201V40.6701C253.65 43.1001 252.34 44.4201 249.9 44.4201H244.53C242.09 44.4201 240.78 43.1001 240.78 40.6701Z" fill="#231F20"/>
</svg>
