<svg viewBox="0 0 272 280"  xmlns="http://www.w3.org/2000/svg" fill="currentColor">
<path  d="M271.38 63.4199C271.35 63.2899 271.27 63.1799 271.23 63.0499C271.14 62.8199 271.07 62.5799 270.95 62.3699C270.87 62.2299 270.75 62.1099 270.65 61.9799C270.52 61.8099 270.41 61.6199 270.26 61.4699C270.13 61.3399 269.97 61.2499 269.83 61.1399C269.67 61.0099 269.53 60.8699 269.35 60.7699L216.9 30.5699C215.55 29.7899 213.89 29.7899 212.54 30.5699L160.09 60.7699C159.91 60.8699 159.77 61.0199 159.61 61.1399C159.47 61.2499 159.31 61.3399 159.18 61.4699C159.03 61.6199 158.92 61.8099 158.79 61.9799C158.69 62.1099 158.57 62.2299 158.49 62.3699C158.37 62.5799 158.29 62.8199 158.21 63.0499C158.16 63.1699 158.09 63.2899 158.06 63.4199C157.96 63.7899 157.91 64.1699 157.91 64.5599V121.92L114.2 147.09V34.8699C114.2 34.4799 114.15 34.0999 114.05 33.7299C114.02 33.5999 113.94 33.4899 113.9 33.3599C113.81 33.1299 113.74 32.8899 113.62 32.6799C113.54 32.5399 113.42 32.4199 113.32 32.2899C113.19 32.1199 113.08 31.9299 112.93 31.7799C112.8 31.6499 112.64 31.5599 112.5 31.4499C112.34 31.3199 112.2 31.1799 112.02 31.0799L59.5701 0.879922C58.2201 0.0999219 56.5601 0.0999219 55.2101 0.879922L2.76008 31.0799C2.58008 31.1799 2.44008 31.3299 2.28008 31.4499C2.14008 31.5599 1.98007 31.6499 1.85007 31.7799C1.70007 31.9299 1.59008 32.1199 1.46008 32.2899C1.36008 32.4199 1.24008 32.5399 1.16008 32.6799C1.04008 32.8899 0.960074 33.1299 0.880074 33.3599C0.830074 33.4799 0.76008 33.5999 0.73008 33.7299C0.63008 34.0999 0.580078 34.4799 0.580078 34.8699V214.53C0.580078 216.09 1.42007 217.54 2.77007 218.32L107.68 278.72C107.91 278.85 108.16 278.93 108.4 279.02C108.51 279.06 108.62 279.13 108.74 279.16C109.11 279.26 109.48 279.31 109.86 279.31C110.24 279.31 110.61 279.26 110.98 279.16C111.08 279.13 111.17 279.07 111.27 279.04C111.53 278.95 111.79 278.86 112.03 278.73L216.94 218.33C218.3 217.55 219.13 216.11 219.13 214.54V157.18L269.39 128.24C270.75 127.46 271.58 126.02 271.58 124.45V64.5599C271.53 64.1699 271.47 63.7899 271.38 63.4199ZM109.78 209.5L66.1501 184.81L111.97 158.43L162.24 129.49L205.91 154.63L173.87 172.92L109.78 209.5ZM210.33 97.2899V147.09L191.97 136.52L166.61 121.92V72.1199L184.97 82.6899L210.33 97.2899ZM214.7 39.3999L258.39 64.5599L214.7 89.7199L171.01 64.5599L214.7 39.3999ZM80.0701 166.72L61.7101 177.29V67.5999L87.0701 52.9999L105.43 42.4299V152.11L80.0701 166.72ZM57.3401 9.71993L101.03 34.8799L57.3401 60.0399L13.6501 34.8799L57.3401 9.71993ZM9.25008 42.4299L27.6101 52.9999L52.9701 67.5999V184.84V184.85V184.86C52.9701 185.03 53.0201 185.19 53.0401 185.35C53.0701 185.56 53.0701 185.78 53.1301 185.99V186C53.1801 186.17 53.2701 186.33 53.3401 186.49C53.4201 186.67 53.4701 186.87 53.5701 187.04C53.5701 187.04 53.5701 187.05 53.5801 187.05C53.6701 187.2 53.8001 187.33 53.9101 187.47C54.0301 187.63 54.1301 187.79 54.2701 187.93L54.2801 187.94C54.4001 188.06 54.5601 188.15 54.7001 188.26C54.8601 188.38 55.0001 188.52 55.1701 188.62C55.1801 188.62 55.1801 188.62 55.1901 188.63C55.2001 188.63 55.2001 188.64 55.2101 188.64L105.45 217.07V267.36L9.25008 212V42.4299ZM210.33 212L114.16 267.37V217.07L185.38 176.41L210.33 162.17V212ZM262.78 121.92L219.07 147.09V97.2899L244.43 82.6899L262.79 72.1199V121.92H262.78Z"/>
</svg>
