<svg viewBox="0 0 148 178" fill="none" xmlns="http://www.w3.org/2000/svg">
<g>
<path d="M138.462 23.7402C121.989 0.162339 89.4516 -6.82627 65.9276 8.16154L24.6217 34.494C19.0386 38.0042 14.2496 42.641 10.5609 48.1078C6.87223 53.5746 4.36502 59.751 3.19965 66.2421C1.22937 77.1743 2.96181 88.4513 8.12272 98.288C4.58578 103.653 2.17332 109.679 1.03115 116.002C-0.145433 122.623 0.0118148 129.412 1.49368 135.972C2.97554 142.532 5.75218 148.729 9.66079 154.202C26.1344 177.783 58.6729 184.773 82.1937 169.78L123.509 143.448C129.091 139.937 133.878 135.3 137.565 129.833C141.252 124.366 143.758 118.19 144.922 111.7C146.895 100.768 145.167 89.4911 140.011 79.6522C143.546 74.2875 145.957 68.2621 147.098 61.9399C148.276 55.3189 148.12 48.5293 146.638 41.9695C145.157 35.4098 142.38 29.2121 138.47 23.7402" fill="#FF3E00"/>
<path d="M61.8917 156.421C55.3899 158.111 48.5262 157.765 42.2272 155.43C35.9282 153.096 30.4975 148.884 26.6683 143.364C24.3181 140.074 22.6486 136.348 21.7575 132.404C20.8664 128.46 20.7718 124.377 21.4791 120.396C21.7185 119.089 22.0482 117.801 22.4659 116.539L23.2437 114.163L25.3615 115.717C30.248 119.31 35.7121 122.042 41.5183 123.796L43.0532 124.261L42.9122 125.795C42.7257 127.973 43.3166 130.148 44.5801 131.933C45.7331 133.597 47.3692 134.866 49.2673 135.57C51.1653 136.274 53.2338 136.378 55.1929 135.869C56.0893 135.63 56.9439 135.257 57.7273 134.76L99.0412 108.424C100.052 107.788 100.92 106.948 101.588 105.958C102.257 104.967 102.711 103.849 102.924 102.673C103.136 101.473 103.106 100.242 102.838 99.0536C102.569 97.8649 102.066 96.7416 101.359 95.7492C100.205 94.0854 98.5694 92.8155 96.6716 92.111C94.7737 91.4065 92.7053 91.3014 90.7458 91.8098C89.8495 92.0483 88.9949 92.4223 88.2114 92.9186L72.4459 102.969C69.8513 104.617 67.0203 105.86 64.0507 106.653C57.5489 108.344 50.6851 107.998 44.3861 105.663C38.0871 103.328 32.6563 99.1164 28.8273 93.5966C26.4765 90.3066 24.8064 86.5803 23.915 82.6362C23.0237 78.6921 22.929 74.6097 23.6365 70.6286C24.3386 66.7254 25.8476 63.0117 28.067 59.725C30.2864 56.4383 33.1673 53.651 36.5255 51.5414L77.8441 25.2105C80.438 23.5599 83.2692 22.3158 86.2393 21.5214C92.7411 19.8314 99.6049 20.1772 105.904 22.5121C112.203 24.8471 117.634 29.0587 121.463 34.5783C123.813 37.8685 125.483 41.5949 126.374 45.5389C127.266 49.4829 127.361 53.5652 126.654 57.5463C126.412 58.853 126.082 60.1416 125.665 61.4034L124.887 63.7794L122.771 62.2286C117.885 58.6353 112.421 55.9032 106.614 54.1502L105.078 53.6845L105.22 52.1512C105.406 49.9712 104.816 47.7956 103.554 46.0085C102.401 44.3447 100.765 43.075 98.8668 42.3711C96.9688 41.6671 94.9004 41.5628 92.9412 42.0722C92.0449 42.3106 91.1902 42.6845 90.4068 43.181L49.0819 69.5182C48.071 70.1541 47.2038 70.994 46.5359 71.984C45.8679 72.9741 45.4138 74.0926 45.2027 75.2681C44.9897 76.4683 45.0182 77.6989 45.2863 78.888C45.5545 80.0771 46.057 81.2007 46.7645 82.1934C47.9178 83.857 49.5538 85.1268 51.4517 85.8312C53.3495 86.5357 55.4177 86.641 57.3773 86.1328C58.2734 85.8938 59.128 85.52 59.9117 85.024L75.6756 74.9782C78.269 73.327 81.1003 72.0833 84.0708 71.2907C90.5723 69.6005 97.4359 69.9463 103.735 72.2813C110.033 74.6162 115.464 78.828 119.293 84.3476C121.643 87.6376 123.314 91.3639 124.205 95.308C125.096 99.2521 125.191 103.334 124.483 107.316C123.783 111.219 122.275 114.933 120.058 118.22C117.841 121.508 114.962 124.297 111.606 126.409L70.2869 152.732C67.6931 154.383 64.862 155.627 61.8917 156.421Z" fill="white"/>
</g>
</svg>
