<svg viewBox="0 0 38 38" fill="currentColor" xmlns="http://www.w3.org/2000/svg">
    <g clip-path="url(#clip0_1201_884)">
        <path d="M32.1993 5.53591C29.3591 2.69572 26.3252 4.53399 24.4265 6.43271L6.49016 24.3696C4.59146 26.2681 2.60413 29.1528 5.59338 32.1416C8.58264 35.1315 11.4673 33.1438 13.3656 31.2451L31.3023 13.3086C33.201 11.4097 35.0393 8.37571 32.1993 5.53591Z" />
        <path d="M15.0631 4.80102L18.8611 8.59884L22.727 4.73294C22.9894 4.46986 23.2559 4.22574 23.524 3.9955C23.1192 1.95298 21.9537 0.106445 18.8593 0.106445C15.759 0.106445 14.595 1.96023 14.1923 4.00719C14.4818 4.25757 14.7706 4.50854 15.0631 4.80102Z" />
        <path d="M22.7248 33.012L18.8613 29.1484L15.0653 32.944C14.7771 33.2324 14.4902 33.4959 14.2046 33.7434C14.6399 35.8256 15.8718 37.7328 18.8597 37.7328C21.8554 37.7328 23.0857 35.8154 23.5182 33.7265C23.2525 33.4979 22.9866 33.2737 22.7248 33.012Z" />
        <path d="M13.4522 14.0078H6.13018C3.44549 14.0078 0 14.8536 0 18.8698C0 21.8665 1.91804 23.0971 4.00729 23.5293C4.25465 23.2437 13.4522 14.0078 13.4522 14.0078Z" />
        <path d="M33.7268 14.2031C33.4951 14.4726 24.2782 23.7319 24.2782 23.7319H31.4963C34.1812 23.7319 37.6265 23.0976 37.6265 18.8701C37.6265 15.7703 35.7733 14.6056 33.7268 14.2031Z" />
        <path d="M15.8513 11.6045L17.1594 10.2964L13.3638 6.50027C11.4649 4.60173 8.58057 2.6142 5.59132 5.60347C3.39934 7.79547 3.8862 9.92877 5.04886 11.6607C5.40298 11.6346 15.8513 11.6045 15.8513 11.6045Z"/>
        <path d="M21.8697 26.1353L20.5582 27.4468L24.4244 31.3127C26.3231 33.2116 29.3571 35.0494 32.1969 32.2096C34.316 30.0904 33.8297 27.8645 32.6582 26.0815C32.2811 26.1087 21.8697 26.1353 21.8697 26.1353Z" />
    </g>
    <defs>
        <clipPath id="clip0_1201_884">
            <rect width="38" height="38"/>
        </clipPath>
    </defs>
</svg>
